<?xml version = "1."?>
<VTKFile type = "UnstructuredGrid" version = "0.1" byte_order = "LittleEndian">
 <UnstructuredGrid>  <Piece NumberOfPoints = "708" NumberOfCells = "411" >
	<Points>
		<DataArray type = "Float32" NumberOfComponents = "3" format = "ascii">
0.05 27.2552 0.742911 0.349038 27.3447 0.742561 0.05 21.8635 5.3191 0.399 22.001 5.601 0.999 22.112 6.15927 1.599 22.199 6.501 2.301 22.299 6.699 3.07304 22.0519 6.74995 4.299 21.927 6.42201 0.05 5.75892 12.0519 1.16337 5.84558 11.016 0.05 28.699 11.7192 0.62843 28.2495 11.4498 1.32811 27.7157 11.0288 1.801 27.4432 11.5707 2.1499 27.2405 11.999 2.75821 26.9113 12.6308 0.05 16.1326 12.9298 0.984096 16.5461 12.888 1.599 16.7503 12.8605 2.58343 17.1693 12.9342 3.42433 17.5671 13.6751 0.05 0.937537 21.007 0.506604 0.899 20.501 1.56868 1.13775 19.6111 1.905 1.35576 18.1411 0.05 7.27691 16.8433 0.761731 7.501 17.499 1.68979 7.57161 18.1815 0.05 25.4448 17.15 0.672201 25.2671 17.0889 0.05 12.6463 20.4622
0.05 12.9558 20.0602 1.14972 12.5766 19.5499 1.68477 11.8533 18.8345 2.15931 11.0357 17.999 0.05 19.7415 22.65 0.05 19.7534 22.499 0.05 14.5455 27.4715 1.22095 14.3408 26.525 0.05 22.3528 26.4472 0.443651 22.4627 26.401 1.26688 22.8681 26.05 1.75319 22.8792 26.2532 2.94835 22.8706 26.7518 3.12132 24.0081 26.6668 1.15656 5.86322 16.3435 1.099 5.94925 16.3178 0.05 22.501 21.7583 0.05 22.699 21.7676 0.601 18.901 1.36819 0.558037 18.999 1.401 2.099 14.9467 3.901 2.099 14.9521 4.099 1.05 26.599 6.799 1.03541 26.55 6.81152 0.05 16.5246 7.4791 0.05 16.499 7.401 1.96231 7.25408 10.1287 1.99124 7.201 10.201 2.36842 8.499 9.699 2.3498 8.48269 8.08081 0.05 24.601 9.25 0.05 24.601 9.15
2.75017 25.6019 12.7859 2.76619 25.701 12.7747 0.05 3.499 13.501 0.05 2.999 13.2885 0.05 2.699 13.399 0.05 1.79148 13.6855 0.05 5.67364 13.85 0.05 5.67364 13.95 0.775155 11.401 16.25 0.701 11.4404 16.199 0.05 3.301 15.999 0.05 3.401 15.954 1.54683 24.6622 18.099 1.46332 24.7603 18.05 1.299 19.1406 19.8629 1.15093 19.0607 19.801 0.204698 2.04075 21.9589 0.203977 1.94057 21.8592 0.523091 25.0357 22.399 0.449886 24.9503 22.301 0.05 17.45 24.145 0.05 17.301 24.201 0.470802 10.7399 25.0499 0.401 10.601 25.0408 0.590486 21.801 24.801 0.575909 21.8594 24.9295 0.499 2.399 25.2705 0.05 2.35 25.55 0.560659 7.26076 26.7571 0.499 7.24264 26.875 0.819276 7.36461 26.401 1.57513 7.56847 25.5525
1.59389 6.89197 24.9082 2.05 6.001 24.1495 3.099 5.53179 23.7391 3.901 5.25 23.9831 5.17909 4.55839 24.3544 1.44523 17.6279 11.2165 1.45 17.599 11.299 0.05 2.02814 15.05 0.05 1.999 15.05 0.715096 20.701 16.2761 0.714327 20.65 16.2823 1.13119 24.1237 16.3547 1.099 24.1704 16.3471 0.834524 11.601 1.26052 0.865109 11.599 1.27164 2.27583 2.65596 4.201 2.33459 2.65499 4.37273 0.959054 23.7667 7.1706 0.915666 23.801 7.15515 0.776078 20.601 9.84956 0.7465 20.5754 9.80748 0.05 15.401 19.344 0.05 15.399 19.3636 0.05 14.499 19.499 0.05 13.2619 19.6603 1.14972 12.5766 19.5499 1.68477 11.8533 18.8345 2.15931 11.0357 17.999 0.97627 24.3155 20.25 0.958305 24.299 20.25 1.47267 24.3297 19.601 1.90219 24.299 19.101
2.48446 23.6755 18.5147 1.61164 6.54536 20.2321 1.61164 6.599 20.101 0.749701 12.6733 22.85 0.664257 12.701 22.739 0.786174 8.54358 25.3357 0.799 8.699 25.3207 0.864483 10.8501 11.4355 0.801 10.901 11.499 1.08097 0.967058 12.9727 1.04999 0.973712 13.001 0.797224 26.95 16.6249 0.771852 26.8752 16.6444 0.20213 24.65 0.252022 0.20213 24.75 0.252022 0.05 23.801 0.336909 0.199 23.25 0.399 0.05 22.25 0.699 0.05 21.233 1.46215 1.2446 4.05042 8.36474 1.299 3.999 8.301 2.801 5.51624 23.7073 2.999 5.52313 23.7079 0.915298 28.1243 2.799 0.876131 28.0716 2.601 1.42582 20.799 8.03267 1.48052 20.8504 7.999 3.05 9.599 18.15 3.02491 9.601 18.1486 2.22497 8.199 4.799 2.18346 8.21701 4.699 1.65279 21.8902 8.75
1.66063 21.8616 8.64958 1.16563 25.099 24.399 1.21577 25.1447 24.3497 1.52631 18.339 15.5498 1.599 18.301 15.499 2.301 22.899 0.58582 2.2342 22.8799 0.538422 2.201 26.199 0.432264 2.201 26.201 0.447659 1.35006 29.7465 22.95 1.499 29.7652 22.901 1.96702 28.3355 10.2358 2.001 28.3499 10.2155 1.98038 23.4575 17.101 2.001 23.4499 17.199 1.35 20.799 29.8665 1.25 20.7501 29.8659 1.98494 27.699 14.001 1.999 27.6501 13.95 1.85846 4.001 17.4292 1.85378 4.15 17.392 2.50954 6.85053 3.59076 2.56761 6.799 3.6279 2.71759 4.299 3.499 2.75821 4.32783 3.45381 1.701 1.65006 29.8349 1.699 1.65685 29.8347 1.001 1.8154 29.8382 0.110137 1.97069 29.6226 2.85246 10.95 8.09344 3.76182 10.355 6.74028 3.24589 22.3792 27.7125
3.28711 22.3453 27.801 2.05 26.9031 29.199 2.00124 26.9392 29.2147 2.701 13.601 6.75085 2.74521 13.599 6.799 2.199 12.6701 13.4578 2.099 12.662 13.4544 2.07944 21.701 19.4238 2.101 21.701 19.4264 2.801 19.2773 23.4745 2.701 19.2823 23.4499 3.08729 0.792576 8.65 3.04235 0.792599 8.55 2.299 26.3577 22.899 2.199 26.301 22.9406 2.199 7.24995 29.8265 1.95 7.22643 29.8348 2.599 7.34352 29.7651 3.35 7.499 29.6022 4.45011 7.77969 29.1319 5.299 7.299 29.2624 5.8096 6.27886 29.1241 2.399 3.299 10.699 2.401 3.201 10.6843 2.23978 1.05634 26.8636 2.199 1.06829 26.839 3.15863 3.701 4.90664 3.16574 3.81202 4.85516 3.05043 27.9501 4.82492 2.701 27.5071 5.901 2.34928 28.3728 8.001 2.35012 28.4363 8.199
2.501 17.3505 18.7096 2.499 17.399 18.7347 3.62978 12.6532 24.0247 4.27332 11.4346 24.8538 3.43335 24.4098 27.2831 3.36882 24.3165 27.1308 3.05002 16.2605 25.399 2.93233 16.1324 25.4712 2.299 15.501 25.6744 1.899 15.199 25.901 1.22095 14.3408 26.525 3.45001 11.301 11.399 3.46334 11.341 11.4327 3.299 9.499 25.6539 3.301 9.401 25.699 2.801 16.6933 1.63261 2.899 16.701 1.601 3.32862 12.6137 20.6499 3.32354 12.599 20.6719 2.92494 28.601 22.501 2.85048 28.7249 22.5285 3.3303 7.78525 26.7164 3.36421 7.801 26.801 3.35026 21.847 3.501 3.40857 21.899 3.699 3.25354 6.56448 5.82985 3.25639 6.45875 5.73795 4.84135 24.3624 19.3471 3.07558 25.201 19.4655 4.49881 20.599 29.2018 4.40199 20.6012 29.2017 3.1671 14.85 13.201
3.16734 14.799 13.2151 4.12965 21.0116 25.601 4.04991 21.1704 25.701 3.34952 10.7437 3.199 3.35927 10.7839 3.201 3.06555 19.999 13.4092 3.05684 19.801 13.4295 4.44082 11.0642 27.099 4.46992 11.0446 27.1251 3.55055 11.9677 16.199 3.601 11.9675 16.101 3.45366 13.3372 4.301 3.47638 13.299 4.27638 3.499 28.8499 9.78466 3.31953 28.8649 9.75014 2.48518 28.8631 9.52693 3.66022 6.44459 11.5525 3.85018 7.27582 10.9551 3.499 14.4014 18.956 3.45004 14.399 18.984 4.42918 27.9326 11.45 4.42615 27.9787 11.399 3.33565 7.15669 10.8402 3.37088 7.03296 10.9239 3.899 28.199 19.201 3.901 28.2379 19.1567 4.399 18.499 20.3497 4.46683 18.3358 20.285 4.499 23.301 5.63152 4.44183 23.2898 5.66182 3.43623 16.4504 8.24922 3.54922 16.4117 8.31879
3.75587 20.167 2.24997 3.8498 19.9399 2.24988 6.11628 0.990632 13.15 6.15002 0.976382 13.201 5.34655 0.457415 15.7456 5.399 0.443561 15.601 4.20832 23.801 29.3514 4.18006 23.75 29.301 5.26658 25.3744 3.201 5.27332 25.299 3.101 4.05014 17.7581 6.999 4.01917 17.7498 7.01557 4.299 16.9558 15.299 4.2433 16.9649 15.1598 4.15 29.5155 17.9029 4.15 29.5409 17.899 6.46261 8.26598 19.199 6.43787 8.299 19.299 4.33112 24.9413 25.6539 4.21472 24.8698 25.7499 4.35 29.7339 15.75 4.45 29.7342 15.75 5.099 20.401 20.4652 5.199 20.501 20.4535 5.24517 22.5802 19.4355 5.299 22.499 19.4725 3.93024 9.699 26.899 3.95008 9.601 26.901 4.499 12.901 8.601 4.54227 12.999 8.701 3.94986 12.1501 9.301 3.95 12.25 9.399
4.3564 16.0503 10.901 4.399 16.056 10.899 4.85479 13.0365 10.901 4.86548 13.101 10.801 5.15 18.4749 13.6735 5.22228 18.4872 13.6757 4.85041 8.94574 29.2843 4.81843 8.80637 29.2901 4.36157 3.701 0.05 4.301 3.699 0.05 4.599 5.59895 2.299 4.54956 5.55436 2.35747 4.099 5.499 2.899 3.35522 5.17658 3.82719 3.601 4.999 4.54753 5.14529 20.7668 13.4322 5.20958 20.601 13.4379 6.13462 29.5537 16.201 6.11426 29.5514 16.399 4.901 28.299 13.336 4.96369 28.3501 13.401 5.17022 6.55529 14.699 5.199 6.547 14.501 5.35032 7.33648 22.5205 6.47565 6.84171 22.4414 6.25934 0.417089 25.7592 6.24984 0.376426 25.8031 5.15 8.15 0.370369 5.06847 8.25 0.370665 4.76259 8.599 0.436378 4.21376 9.23127 0.566169 3.4503 9.44536 1.099
2.45 9.68409 1.701 1.54071 10.0375 1.217 4.73986 14.199 16.099 4.74996 14.0336 16.0731 6.199 28.1297 18.8469 6.16404 28.6732 18.3544 5.199 3.501 29.7209 5.201 3.599 29.7277 5.199 12.0501 4.201 5.25 12.0746 4.16676 5.399 18.2497 4.45 5.41644 18.2467 4.46261 5.45755 9.701 16.1288 5.47388 9.82857 16.041 5.90975 0.901 20.7919 5.9249 1.04962 20.7794 6.39034 21.3905 7.04059 6.49033 21.2875 7.04066 5.501 22.899 11.101 5.5721 22.8123 11.084 6.46425 17.61 15.8199 6.499 17.6543 15.799 5.83469 5.63459 16.0577 5.799 5.699 16.071 5.53281 23.3457 17.9433 5.599 23.3353 17.899 5.23178 16.201 23.7764 5.28074 16.1757 23.7271 5.46059 22.961 15.301 5.54207 22.9761 15.439 5.399 26.0091 26.15 5.399 26.0297 26.2012
6.05326 22.524 8.65 6.07579 22.5467 8.75 6.09396 15.2726 21.1875 6.08456 15.2207 21.201 5.56781 28.2236 9.18416 5.501 28.2498 9.201 5.85489 2.56309 16.8823 5.899 2.699 16.8825 6.15 14.85 29.95 6.301 14.801 29.95 7.12511 10.401 22.1721 7.12657 10.3494 22.1484 6.301 2.299 6.07981 6.16301 2.14996 6.11557 5.501 7.699 7.36729 5.401 7.74183 7.35661 5.85 9.999 0.827941 5.899 10.001 0.801 5.65 4.97228 4.97273 5.599 4.97253 4.97227 6.74457 23.799 10.3396 6.76043 23.801 10.3554 6.899 19.199 19.0558 6.94312 19.299 19.0468 6.32105 24.9588 11.528 6.399 24.9032 11.499 6.45 13.8247 9.74996 6.399 13.8197 9.75008 5.39316 13.85 9.84979 5.81552 9.101 13.0494 5.8392 9.27532 13.0647 6.78539 4.94992 14.301
6.78537 4.95511 14.25 9.14491 19.7296 25.999 9.13042 19.7466 25.8636 5.999 3.75 11.6722 5.97244 3.601 11.6592 6.799 2.001 15.2989 6.75003 1.98384 15.2105 6.25 11.3351 6.201 6.15 11.3351 6.20954 6.899 17.2501 8.86408 6.92848 17.3572 8.78056 7.14392 22.201 16.9263 7.11618 22.201 16.899 6.35 0.10358 0.05 6.25 0.05 0.103327 6.5495 21.8732 21.7398 6.48494 21.8498 21.601 6.88103 13.94 2.935 6.87218 13.801 2.97221 7.09778 11.799 4.701 7.04922 11.801 4.701 6.95951 25.9673 9.36714 6.95022 25.899 9.499 8.15 27.4635 22.1266 7.76253 27.4589 22.099 7.101 23.201 23.2455 7.101 23.15 23.2401 7.001 17.2812 3.001 7.001 17.2174 2.98609 8.03828 18.7215 6.05774 7.90994 18.799 6.11428 6.35 11.0354 13.499
6.401 11.0472 13.4874 6.52373 27.899 0.145981 6.58137 27.901 0.17314 6.76354 11.3677 2.34208 6.82011 11.301 2.201 9.95 15.799 12.101 9.95 15.8118 12.1882 6.86791 25.658 13.701 6.901 25.6855 13.7636 7.501 20.7639 18.2959 7.52909 20.799 18.199 7.701 23.9531 0.456875 7.85 23.935 0.45989 7.101 29.8411 2.15 7.13531 29.841 2.05 7.65638 20.9303 8.97993 7.67904 20.9504 9.001 7.85003 9.95053 1.54388 7.74992 10.0504 1.51578 8.001 5.42798 3.25 8.00952 5.45 3.199 8.38714 5.199 9.7382 8.35973 5.23323 9.76276 8.62086 4.899 9.199 8.999 4.299 8.299 9.32956 4.06072 6.78511 7.35698 11.499 0.768306 7.36485 11.501 0.742382 7.301 11.6801 15.05 7.201 11.6619 15.0284 7.301 19.8632 15.501 7.34986 19.9629 15.649
7.72313 15.8473 19.7435 7.67141 15.8889 19.601 7.53735 14.9343 21.2614 7.499 14.9476 21.2857 7.74577 15.2463 23.801 7.85044 15.3112 23.9599 7.57997 14.0606 0.95 7.63904 13.9637 0.801 8.62407 7.84401 1.46508 8.63552 7.901 1.52891 7.4498 2.34992 9.5242 7.401 2.299 9.55036 7.53654 27.701 15.2163 7.499 27.799 15.1802 8.69473 3.64295 19.65 8.801 3.64668 19.5537 9.15 3.64989 19.3502 9.399 4.04435 18.201 9.95 4.26786 17.0374 9.899 4.299 17.201 8.65202 8.099 6.85686 8.55512 8.001 6.96158 7.6596 19.999 11.199 7.67122 20.0159 11.1425 7.501 26.7437 17.8018 7.54991 26.701 17.799 7.55 25.3391 23.6705 7.699 25.3499 23.6831 8.999 25.1431 23.9367 9.95 25.0236 24.0847 7.56744 24.499 16.3869 7.46757 24.301 16.4289
7.599 11.9423 25.201 7.6761 11.9502 25.301 8.699 11.8471 14.1333 8.67061 11.8349 14.099 9.95 23.201 23.801 9.95 23.299 23.7952 7.8395 6.44358 28.3498 7.999 6.43198 28.301 7.599 0.252911 29.7467 7.65 0.25279 29.7468 7.65 14.05 3.65 7.55 14.05 3.65 8.801 10.699 20.6292 8.7369 10.661 20.7328 8.92097 4.701 0.836252 8.99419 4.69124 0.847971 8.399 9.299 18.3277 8.23949 9.25606 18.3499 9.01983 16.2335 27.7121 9.05496 16.1639 27.6573 8.275 25.8845 28.1427 8.25 25.901 28.1638 8.05 23.75 29.95 7.94986 23.8499 29.95 8.101 24.3321 4.45634 8.27516 24.2678 4.42892 9.0503 23.9499 4.22129 9.95 23.55 3.9296 8.47231 12.199 11.799 8.42951 12.1212 11.8398 9.27457 13.001 26.9942 9.35395 13.101 26.8928
8.35 28.7269 29.6577 8.401 28.744 29.6572 8.501 20.3449 19.6719 8.599 20.3426 19.701 9.95 26.401 23.0186 9.95 26.399 23.0814 8.801 8.099 11.3722 8.84986 8.13166 11.3636 9.02059 10.4248 12.101 9.06439 10.4387 12.099 8.45 23.199 16.65 8.35 23.199 16.65 8.401 9.699 22.8558 8.55749 9.699 22.9318 9.13491 21.299 0.254139 9.02793 21.901 0.2552 9.95 1.07544 2.18372 9.95 1.199 2.101 8.501 0.05 10.7225 8.55 0.05 10.699 8.599 24.9558 11.0361 8.65 24.9562 11.0437 8.001 24.9206 10.868 7.03775 24.7333 10.6654 8.75 21.5707 17.033 8.899 21.5915 17.0054 9.95 15.6716 6.55 9.95 15.601 6.601 8.55 29.95 14.45 8.65 29.95 14.45 8.75 0.05 14.5503 8.801 0.05 14.599
9.24387 9.17323 3.85 9.24372 9.1637 3.75 9.15001 6.02701 26.201 9.13686 6.05025 26.3246 9.399 23.5347 1.701 9.35016 23.5201 1.65 9.57496 6.999 24.299 9.58654 7.001 24.2718 8.85 29.35 0.05 8.95 29.3501 0.05 8.401 29.3612 0.05 8.001 29.3416 0.134647 7.24398 29.3721 0.324145 9.95 23.301 16.601 9.95 23.299 16.601 9.95 21.0588 21.55 9.95 21.001 21.499 9.599 7.701 27.7606 9.56382 7.601 27.7501 9.95 22.05 4.799 9.95 22.15 4.75 9.95 10.35 9.65 9.95 10.35 9.75 9.95 0.158558 27.55 9.95 0.158558 27.65 9.95 15.799 14.399 9.95 15.9118 14.3103 9.95 21.0231 18.8505 9.85 21.0621 18.799 9.95 25.6271 12.899 9.95 25.5729 12.701 9.95 16.2436 22.75
9.95 16.2437 22.85 9.95 9.901 25.099 9.95 9.82402 24.9758 9.95 9.62722 24.6601 9.95 9.13275 23.95 9.95 26.8459 5.71922 9.701 27.101 5.6583 8.85 27.299 6.001 7.56156 27.7571 6.37532 7.201 27.799 6.199 6.34414 26.8406 5.9424 5.24794 26.5622 4.94506 5.55756 25.4166 4.95032 9.95 3.8582 6.78866 9.32956 4.06072 6.78511 9.95 21.699 10.4133 9.27546 21.5644 10.2352 8.401 21.401 10.0456 7.78558 21.2503 9.899 7.099 22.099 9.90169 6.45395 22.799 10.0364 9.95 9.54163 11.6734 9.66134 9.61764 11.5504 9.95 17.1165 13.35 9.67912 17.4802 13.3481 9.47672 17.699 13.346 8.65011 18.4719 13.299 7.44981 18.75 13.699 6.35 18.964 13.6847 9.95 14.5329 27.0546 9.88599 14.7663 27.501 9.95 9.83687 27.9228
9.43007 10.1215 28.158 8.84211 10.7705 28.585 8.225 11.471 28.8789 9.95 19.75 28.844 8.853 19.0404 28.4409 8.00522 18.334 27.7148 7.299 18.4476 27.701 7.25 18.426 28.1387 5.82447 18.6565 28.6447 9.95 5.97616 28.155 9.75 5.901 28.399 9.22392 6.499 27.699 9.95 1.06774 9.73848 9.95 0.901 9.701 9.95 1.14988 15.3499 9.95 1.099 15.301 0.05 3.25 14.799 0.05 3.15 14.85 9.95 5.25059 29.099 9.95 5.2304 29.101 6.55 8.65 0.95 6.55 8.85 0.85 7.15 12.75 1.85 7.15 12.65 1.85 0.05 14.501 13.15 0.05 14.45 13.15 9.95 15.099 12.901 9.95 14.899 13.05 9.95 14.6818 13.799 9.95 14.85 14.501 9.95 14.499 15.301 9.95 13.4099 16.1706
9.95 18.15 20.5225 9.95 18.25 20.5226 0.05 18.85 29.95 0.05 18.95 29.95 9.199 21.0499 18.401 9.201 21.099 18.399 9.95 22.85 10.75 9.95 22.95 10.75 9.95 23.801 28.501 9.95 23.9387 28.5387 0.101 26.2503 27.5498 0.05 26.301 27.599 7.14992 27.501 17.35 7.05026 27.6498 17.399 0.05 27.75 23.5495 0.05 27.899 23.499 9.85 28.75 14.25 9.85 28.85 14.25 4.4499 0.05 1.04992 4.54986 0.05 0.949583 0.05 21.6629 4.35 0.05 21.6627 4.25 9.899 26.2502 10.0506 9.8779 26.1503 10.199 2.87845 0.05 14.55 2.86277 0.05 14.499 2.699 0.05 13.85 2.801 0.05 13.201 3.05 0.05 12.85 3.45 0.173753 12.45 3.25 0.454066 11.601 3.51666 0.955492 10.4585
9.95 26.55 18.65 9.95 26.55 18.55 0.104344 1.76514 28.451 0.05 1.8268 28.599 
		</DataArray>
	</Points>
	<Cells>
		<DataArray type = "Int32" Name = "connectivity" format = "ascii">
0 1 2 3 3 4 4 5 5 6 6 7 7 8 9 10 11 12 12 13 13 14 14 15 15 16 17 18 18 19 19 20
20 21 22 23 23 24 24 25 26 27 27 28 29 30 31 32 32 33 33 34 34 35 36 37 38 39 40 41 41 42 42 43
43 44 44 45 46 47 48 49 50 51 52 53 54 55 56 57 58 59 58 60 60 61 62 63 64 65 66 67 67 68 68 69
70 71 72 73 74 75 76 77 78 79 80 81 82 83 84 85 86 87 88 89 90 91 92 93 92 94 94 95 95 96 96 97
97 98 98 99 99 100 101 102 103 104 105 106 107 108 109 110 111 112 113 114 115 116 117 118 118 119 119 120 120 121 121 122
122 123 124 125 124 126 126 127 127 128 129 130 131 132 133 134 135 136 137 138 139 140 141 142 141 143 143 144 144 145 145 146
147 148 149 150 151 152 153 154 155 156 157 158 159 160 161 162 163 164 165 166 167 168 169 170 171 172 173 174 175 176 177 178
179 180 181 182 183 184 185 186 186 187 187 188 189 190 191 192 193 194 195 196 197 198 199 200 201 202 203 204 205 206 207 208
207 209 209 210 210 211 211 212 212 213 214 215 216 217 218 219 220 221 222 223 224 225 226 227 228 229 230 231 231 232 232 233
233 234 235 236 237 238 239 240 241 242 243 244 245 246 247 248 249 250 251 252 253 254 255 256 257 258 259 260 261 262 263 264
265 266 267 268 269 270 270 271 272 273 274 275 276 277 278 279 280 281 282 283 284 285 286 287 288 289 290 291 292 293 294 295
296 297 298 299 300 301 302 303 304 305 306 307 308 309 310 311 312 313 314 315 316 317 318 319 320 321 322 323 324 325 326 327
328 329 330 331 331 332 332 333 333 334 335 336 337 338 339 340 341 342 343 344 345 346 347 348 348 349 349 350 350 351 351 352
352 353 354 355 356 357 358 359 360 361 362 363 364 365 366 367 368 369 370 371 372 373 374 375 376 377 378 379 380 381 382 383
384 385 386 387 388 389 390 391 392 393 394 395 396 397 398 399 400 401 402 403 404 405 406 407 408 409 410 411 411 412 413 414
415 416 417 418 419 420 421 422 423 424 425 426 427 428 429 430 431 432 433 434 435 436 437 438 439 440 441 442 443 444 445 446
447 448 449 450 451 452 453 454 455 456 457 458 459 460 461 462 463 464 465 466 467 468 469 470 469 471 471 472 472 473 474 475
476 477 478 479 480 481 482 483 484 485 486 487 488 489 490 491 492 493 494 495 495 496 496 497 497 498 498 499 500 501 502 503
504 505 506 507 507 508 508 509 510 511 512 513 514 515 516 517 518 519 520 521 522 523 524 525 526 527 528 529 530 531 532 533
534 535 536 537 537 538 538 539 540 541 542 543 544 545 546 547 548 549 550 551 552 553 554 555 556 557 558 559 560 561 562 563
564 565 564 566 566 567 568 569 570 571 572 573 574 575 576 577 578 579 580 581 582 583 584 585 584 586 586 587 587 588 589 590
591 592 593 594 595 596 597 598 599 600 601 602 603 604 605 606 607 608 609 610 610 611 611 612 613 614 614 615 615 616 616 617
617 618 618 619 619 620 621 622 623 624 624 625 625 626 626 627 627 628 629 630 631 632 632 633 633 634 634 635 635 636 637 638
639 640 640 641 641 642 643 644 644 645 645 646 646 647 647 648 649 650 650 651 652 653 654 655 656 657 658 659 660 661 662 663
664 665 666 667 667 668 668 669 669 670 670 671 672 673 674 675 676 677 678 679 680 681 682 683 684 685 686 687 688 689 690 691
692 693 694 695 696 697 697 698 698 699 699 700 700 701 701 702 702 703 704 705 706 707 		</DataArray>
		<DataArray type = "Int32" Name = "offsets" format = "ascii">
2 4 6 8 10 12 14 16 18 20 22 24 26 28 30 32 34 36 38 40 42 44 46 48 50 52 54 56 58 60 62 64
66 68 70 72 74 76 78 80 82 84 86 88 90 92 94 96 98 100 102 104 106 108 110 112 114 116 118 120 122 124 126 128
130 132 134 136 138 140 142 144 146 148 150 152 154 156 158 160 162 164 166 168 170 172 174 176 178 180 182 184 186 188 190 192
194 196 198 200 202 204 206 208 210 212 214 216 218 220 222 224 226 228 230 232 234 236 238 240 242 244 246 248 250 252 254 256
258 260 262 264 266 268 270 272 274 276 278 280 282 284 286 288 290 292 294 296 298 300 302 304 306 308 310 312 314 316 318 320
322 324 326 328 330 332 334 336 338 340 342 344 346 348 350 352 354 356 358 360 362 364 366 368 370 372 374 376 378 380 382 384
386 388 390 392 394 396 398 400 402 404 406 408 410 412 414 416 418 420 422 424 426 428 430 432 434 436 438 440 442 444 446 448
450 452 454 456 458 460 462 464 466 468 470 472 474 476 478 480 482 484 486 488 490 492 494 496 498 500 502 504 506 508 510 512
514 516 518 520 522 524 526 528 530 532 534 536 538 540 542 544 546 548 550 552 554 556 558 560 562 564 566 568 570 572 574 576
578 580 582 584 586 588 590 592 594 596 598 600 602 604 606 608 610 612 614 616 618 620 622 624 626 628 630 632 634 636 638 640
642 644 646 648 650 652 654 656 658 660 662 664 666 668 670 672 674 676 678 680 682 684 686 688 690 692 694 696 698 700 702 704
706 708 710 712 714 716 718 720 722 724 726 728 730 732 734 736 738 740 742 744 746 748 750 752 754 756 758 760 762 764 766 768
770 772 774 776 778 780 782 784 786 788 790 792 794 796 798 800 802 804 806 808 810 812 814 816 818 820 822 
		</DataArray>
		<DataArray type = "UInt8" Name = "types" format = "ascii">
3 3 3 3 3 3 3 3 3 3 3 3 3 3 3 3 3 3 3 3 3 3 3 3 3 3 3 3 3 3 3 3
3 3 3 3 3 3 3 3 3 3 3 3 3 3 3 3 3 3 3 3 3 3 3 3 3 3 3 3 3 3 3 3
3 3 3 3 3 3 3 3 3 3 3 3 3 3 3 3 3 3 3 3 3 3 3 3 3 3 3 3 3 3 3 3
3 3 3 3 3 3 3 3 3 3 3 3 3 3 3 3 3 3 3 3 3 3 3 3 3 3 3 3 3 3 3 3
3 3 3 3 3 3 3 3 3 3 3 3 3 3 3 3 3 3 3 3 3 3 3 3 3 3 3 3 3 3 3 3
3 3 3 3 3 3 3 3 3 3 3 3 3 3 3 3 3 3 3 3 3 3 3 3 3 3 3 3 3 3 3 3
3 3 3 3 3 3 3 3 3 3 3 3 3 3 3 3 3 3 3 3 3 3 3 3 3 3 3 3 3 3 3 3
3 3 3 3 3 3 3 3 3 3 3 3 3 3 3 3 3 3 3 3 3 3 3 3 3 3 3 3 3 3 3 3
3 3 3 3 3 3 3 3 3 3 3 3 3 3 3 3 3 3 3 3 3 3 3 3 3 3 3 3 3 3 3 3
3 3 3 3 3 3 3 3 3 3 3 3 3 3 3 3 3 3 3 3 3 3 3 3 3 3 3 3 3 3 3 3
3 3 3 3 3 3 3 3 3 3 3 3 3 3 3 3 3 3 3 3 3 3 3 3 3 3 3 3 3 3 3 3
3 3 3 3 3 3 3 3 3 3 3 3 3 3 3 3 3 3 3 3 3 3 3 3 3 3 3 3 3 3 3 3
3 3 3 3 3 3 3 3 3 3 3 3 3 3 3 3 3 3 3 3 3 3 3 3 3 3 3 
		</DataArray>
	</Cells>
	<PointData>
		<DataArray type = "Float32" Name = "radius" format = "ascii">
8.24335 8.39716 3.48511 3.12703 5.08083 7.01772 8.96147 9.13862 12.4333 14.1666 15.0422 4.07669 4.04887 6.47814 5.7391 5.95924 7.90322 5.3207 5.07031 6.3642 9.78135 10.4932 10.3114 10.6151 12.8726 15.319 9.27803 9.93613 13.0855 7.07944 8.4262 9.13596
8.68384 9.78767 9.49169 12.0194 13.8136 14.1994 13.3541 13.8597 6.36483 6.66734 9.96675 9.61436 11.3866 11.439 9.98211 10.0955 2.76906 2.42917 3.63436 3.75328 9.14408 8.74594 5.14723 4.97496 7.81113 7.92746 12.2521 12.3813 12.6984 15.5642 4.8255 4.8255
6.14398 6.19583 4.06832 4.11905 4.18527 5.82891 10.1104 10.1104 4.13369 4.27269 7.5033 7.37411 7.03682 6.78634 10.3199 10.1597 7.57696 7.58453 3.3512 3.55606 3.57475 3.82289 4.17696 4.39175 6.73354 6.51966 6.57906 6.19179 3.76684 3.75371 4.63428 8.44243
8.05945 9.38499 12.6808 12.0918 14.6417 5.06539 5.14512 5.67386 5.7755 3.42465 3.10473 7.66908 7.54002 6.14803 6.17992 9.65789 9.59898 4.6504 4.74592 6.5736 6.59003 3.63357 3.64757 4.62176 9.06822 9.78767 9.49169 12.0194 3.50286 3.42348 5.13203 7.2994
9.44634 4.98862 5.24227 3.3142 3.58658 4.85964 4.68162 4.26201 4.41555 3.48974 3.32213 6.07809 5.97059 4.4123 4.41231 4.9359 5.58844 8.16825 10.5983 4.21677 4.41977 12.5138 12.6797 3.85201 4.05106 7.03277 7.24454 10.0004 10.058 6.18549 6.05193 7.54937
7.63476 4.15986 3.93724 3.05298 3.30589 6.8658 6.60677 6.08551 6.06216 3.64103 3.90866 4.73691 4.74527 7.31738 7.21438 2.8088 2.46403 3.83709 3.56222 6.40034 6.28863 5.50781 5.41036 7.89658 7.52274 3.13446 3.13934 3.38235 5.36406 8.55982 8.24016 8.93813
8.68221 3.30312 3.38623 5.34475 5.34637 4.99369 4.86498 4.08254 3.92628 7.42205 7.32744 9.54213 9.41902 4.27044 4.27247 3.50345 2.91384 3.71882 5.64489 10.3217 9.20972 10.5272 4.41545 4.34883 3.39945 3.46126 8.23598 8.00265 7.9695 8.38459 3.74021 3.71007
5.91925 5.99019 7.34403 7.23599 9.95462 10.0913 3.70277 3.91903 5.93239 8.18113 13.8597 4.72995 4.60826 5.24372 5.39029 8.00578 8.10764 4.35768 4.41234 4.30814 3.9225 6.14838 5.90652 5.33657 5.25199 5.46765 5.46986 6.18894 6.4334 9.79666 9.79157 3.14968
3.25001 6.5894 6.39227 4.19698 4.3007 5.31088 5.37894 5.36257 5.26971 5.36507 5.27198 5.35249 5.45525 4.74626 4.90629 6.22812 7.65968 7.79722 4.38719 4.29405 4.74287 4.96924 7.78598 7.65177 5.69013 5.79979 7.2201 7.08869 9.96429 9.73569 4.30653 4.19682
3.3971 3.32299 4.98659 5.01368 5.97622 6.15076 8.16334 8.09335 11.0284 11.1796 3.42091 3.52961 5.53387 5.41046 6.55417 6.46257 8.76669 8.76175 7.16936 7.21793 4.14759 4.14489 5.98985 5.97509 4.90586 4.87479 1.90161 1.87537 4.41874 4.2705 1.36595 0.971835
3.56002 3.75137 4.09305 4.15954 6.95157 7.26896 8.47519 8.73474 2.19937 2.37938 3.90181 3.69039 4.88816 9.25544 9.42125 5.63818 5.93026 6.29872 6.14407 3.7621 3.57387 6.69929 6.62478 7.14284 7.03397 5.47834 5.5039 5.19188 5.26283 6.06549 7.40931 6.95259
8.83297 9.78219 3.47951 3.35927 6.47051 6.14912 4.70065 4.67807 6.30773 5.85045 6.03327 5.99142 5.38371 5.18664 8.08918 7.91969 9.52213 9.50404 6.04385 5.8468 5.72413 5.80221 7.76626 7.86737 4.56408 4.74064 3.50756 3.52894 3.44396 3.22875 7.16517 7.2429
6.1374 6.13508 8.19862 8.18106 4.28922 4.39143 5.98371 6.13502 1.485 2.14332 9.48174 9.55711 4.20163 3.95773 3.48371 3.56665 4.12136 4.41439 4.03584 4.28679 6.128 6.1281 5.53744 5.70061 5.67166 5.94219 5.80776 6.11527 6.96607 3.8016 3.90468 6.38375
6.14904 6.15807 6.19466 4.11936 4.24703 6.03837 5.80981 5.80249 5.7254 4.09244 3.96968 5.39036 5.32158 2.43663 2.43826 3.46728 3.66226 4.40838 4.40384 5.7741 5.63182 3.73363 3.88498 10.922 11.1979 7.14471 6.95984 9.33146 9.41769 10.2274 10.5198 7.5883
7.68711 3.01527 3.07985 3.83296 4.20195 4.92235 4.87309 3.45046 3.24325 5.88523 5.83401 6.35912 5.82031 3.46025 3.15053 6.31125 6.42924 3.66649 3.93457 5.82629 5.91975 7.35987 7.05399 7.48852 10.3496 15.6569 4.10943 4.09988 6.12077 6.3308 4.28104 3.73123
8.96853 8.89517 8.24948 8.42773 4.95353 4.3409 3.78696 4.10247 5.94 6.01012 4.08906 4.26718 4.19088 4.2032 9.40199 9.38687 8.6521 10.716 14.2248 14.3728 9.17498 9.18534 4.1496 3.99613 4.38529 4.38596 10.8855 10.9108 11.719 14.1473 4.45433 4.49055
3.61147 3.47651 6.45844 6.41434 11.0163 11.0331 3.34357 3.4875 4.19502 3.76814 0.496711 0.499567 4.65484 4.71534 9.89408 9.96039 4.54446 4.29072 7.11234 6.92194 3.63731 3.57683 0.899292 0.900732 4.10732 3.96292 4.22994 6.91296 4.86985 4.73349 6.94101 6.88711
3.32164 3.56459 4.68772 4.62193 11.1186 11.1186 4.4281 4.06064 4.66272 4.56449 1.36471 1.36471 4.27274 4.10985 4.09676 3.99792 10.1099 10.141 2.2548 1.9505 3.57756 3.17482 4.05447 6.73026 5.12459 5.3338 7.98781 8.32933 0.496005 0.493697 1.99462 2.64988
3.31877 3.23376 3.60476 3.49831 4.15916 3.76894 4.30903 4.22457 1.72115 1.72175 2.41198 2.80779 4.50902 4.18527 4.18527 4.8098 5.11238 3.47513 3.57421 4.32403 3.96345 4.36 4.36 3.0183 3.0183 4.62176 4.88304 2.18992 2.20222 3.54909 3.54909 3.09621
3.095 3.27248 3.10861 3.27214 5.14786 3.82205 3.14802 5.98849 12.4857 11.3552 13.755 15.1675 15.2052 15.4503 15.6569 4.10861 3.91972 5.04361 7.27137 6.69474 8.03169 5.85454 6.31537 8.04533 7.81791 7.99157 9.4288 8.19671 9.84045 10.2714 10.5505 7.55569
6.53349 8.65309 12.5877 12.4483 11.4883 14.2599 12.7928 13.0784 14.64 4.00393 2.98064 5.57356 1.92204 1.8836 1.21839 1.56077 3.8755 3.41 1.68259 1.7184 0.501889 0.501037 0.494112 0.493976 2.18657 1.72116 2.37938 1.9505 3.01474 4.32403 7.92746 14.2883
1.98212 1.98181 0.491093 0.491093 1.87537 1.71819 0.49437 0.493685 2.59281 2.44926 1.36797 1.55822 1.3684 1.36472 0.903552 1.55753 0.498524 0.497438 0.9004 0.903404 1.60791 1.60571 1.36868 1.44346 1.75531 1.96605 1.9505 2.59281 2.00863 3.22311 6.35522 11.3166
0.491803 0.493801 2.94207 3.27582 		</DataArray>
		<DataArray type = "Float32" Name = "cellType" format = "ascii">
5 0 5 0 0 0 0 0 0 5 0 5 0 0 0 0 0 5 0 0 0 0 5 0 0 0 5 0 0 5 0 5
0 0 0 0 5 0 5 0 5 0 0 0 0 0 16 15 16 15 16 15 16 15 16 15 16 15 6 15 0 0 16 15
16 15 16 5 0 0 16 15 16 15 16 15 16 15 16 15 16 15 16 15 16 15 16 15 16 15 16 15 6 15 0 0
0 0 0 0 0 16 15 16 5 16 15 16 15 16 15 16 15 16 15 16 15 16 5 0 0 0 0 0 6 15 0 0
0 16 15 16 15 16 15 16 15 16 15 16 15 6 15 0 0 0 0 16 15 16 15 16 15 16 15 16 15 16 15 16
15 16 15 16 15 16 15 16 15 16 15 16 15 16 15 16 15 16 15 16 15 16 15 16 15 16 5 0 0 16 15 16
15 16 15 16 15 16 15 16 15 16 15 16 15 16 15 6 15 0 0 0 0 0 16 15 16 15 16 15 16 15 16 15
16 15 16 15 16 15 16 5 0 0 0 16 15 16 15 16 15 16 15 16 15 16 15 16 15 16 15 16 15 16 15 16
15 16 15 16 15 16 15 16 15 16 15 16 15 16 5 0 16 15 16 15 16 15 16 15 16 15 16 15 16 15 16 15
16 15 16 15 16 15 16 15 16 15 16 15 16 15 16 15 16 15 16 15 16 15 16 15 16 15 16 15 16 15 16 15
16 15 16 15 16 15 16 15 16 15 16 5 0 0 0 16 15 16 15 16 15 16 15 16 15 16 15 16 5 0 0 0
0 0 16 15 16 15 16 15 16 15 16 15 16 15 16 15 16 15 16 15 16 15 16 15 16 15 16 15 16 15 16 15
16 15 16 15 16 15 16 15 16 15 16 15 16 15 16 15 16 15 16 15 16 15 16 15 16 15 16 5 0 16 15 16
15 16 15 16 15 16 15 16 15 16 15 16 15 16 15 16 15 16 15 16 15 16 15 16 15 16 15 16 15 16 15 16
15 16 15 16 15 16 15 16 15 16 15 16 15 16 15 16 15 16 15 16 15 6 15 0 0 0 16 15 16 15 16 15
16 15 16 15 16 15 16 15 16 15 16 15 16 15 16 5 0 0 0 0 16 15 16 15 16 15 16 5 0 5 16 15
16 15 16 15 16 15 16 15 16 15 16 15 16 15 16 15 16 15 16 15 16 15 16 15 16 5 0 5 16 15 16 15
16 15 16 15 16 15 16 15 16 15 16 15 16 15 16 15 16 15 16 15 6 15 0 0 16 15 16 15 16 15 16 15
16 15 16 15 16 15 16 15 6 15 0 0 0 16 15 16 15 16 15 16 15 16 15 16 15 16 15 16 15 16 15 16
15 16 5 0 5 5 0 0 0 0 0 0 0 5 0 5 0 0 0 0 0 5 0 5 0 0 0 0 0 5 0 5
0 0 0 5 0 0 0 0 0 5 0 0 16 15 16 15 16 15 16 15 16 15 16 15 16 15 16 5 0 0 0 5
16 15 16 15 16 15 16 15 16 15 16 15 16 15 16 15 16 15 16 15 16 15 16 15 16 5 0 0 0 0 0 0
16 15 16 15 		</DataArray>
	</PointData>
	<CellData Scalars = "subType">
		<DataArray type = "Int32" Name = "index" format = "ascii">
59 31 31 31 31 31 31 11 65 65 65 65 65 47 47 47 47 10 10 10 27 27 61 38 38 38 38 18 20 43 43 43
43 43 1119 1120 1121 1122 1123 1124 1125 7 7 1126 1127 1128 88 88 1129 1130 1131 1132 1133 1134 1135 1136 1137 1138 1139 1140 14 14 14 14
14 14 14 1141 1142 1143 1144 1145 1146 1147 1148 1149 38 38 38 38 38 1150 56 56 56 1151 1152 1153 1154 1155 1156 1157 45 45 45 45
1158 1159 1160 1161 1162 1163 1164 1165 1166 1167 1168 1169 1170 1171 1172 1173 1174 1175 1176 1177 93 93 1178 1179 1180 1181 1182 1183 1184 1185 1186 1187
48 48 48 48 48 1188 1189 1190 1191 1192 1193 1194 1195 1196 20 20 20 1197 1198 1199 1200 1201 1202 1203 1204 1205 1206 1207 1208 1209 1210 1211
1212 1213 1214 84 1215 1216 1217 1218 1219 1220 1221 1222 1223 1224 1225 1226 1227 1228 1229 1230 1231 1232 1233 1234 1235 1236 1237 1238 1239 1240 1241 1242
1243 1244 63 63 63 1245 1246 1247 1248 1249 1250 1251 54 54 54 54 54 1252 1253 1254 1255 1256 1257 1258 1259 1260 1261 1262 1263 1264 1265 1266
1267 1268 1269 1270 1271 1272 1273 1274 1275 1276 1277 1278 1279 1280 77 1281 1282 1283 1284 1285 1286 1287 1288 1289 1290 1291 1292 1293 1294 1295 1296 1297
1298 1299 1300 1301 1302 1303 1304 1305 1306 1307 1308 1309 6 6 6 1310 1311 1312 1313 1314 1315 1316 1317 1318 1319 1320 24 24 24 24 1321 1322
1323 1324 19 19 1325 1326 1327 1328 1329 1330 1331 1332 1333 1334 1335 1336 1337 1338 72 72 1339 1340 1341 1342 1343 1344 1345 1346 1347 1348 1349 1350
1351 78 78 1352 1353 1354 1355 1356 1357 1358 1359 1360 99 99 99 1361 1362 1363 1364 1365 1366 1367 1368 1369 1370 1371 91 91 9 9 9 9
9 9 9 6 64 64 64 64 64 83 53 53 53 53 53 50 28 28 28 12 12 12 12 12 92 92 1408 1409 1410 1411 1412 1413
1414 1415 16 16 16 16 1416 1417 1418 1419 1420 1421 1422 1423 1424 1425 1426 1427 1428 41 41 41 41 41 41 1429 1430 		</DataArray>
		<DataArray type = "Int32" Name = "subType" format = "ascii">
0 0 0 0 0 0 0 0 0 0 0 0 0 0 0 0 0 0 0 0 0 0 0 0 0 0 0 0 0 0 0 0
0 0 0 0 0 0 0 0 0 0 0 0 0 0 0 0 0 0 0 0 0 0 0 0 0 0 0 0 0 0 0 0
0 0 0 0 0 0 0 0 0 0 0 0 0 0 0 0 0 0 0 0 0 0 0 0 0 0 0 0 0 0 0 0
0 0 0 0 0 0 0 0 0 0 0 0 0 0 0 0 0 0 0 0 0 0 0 0 0 0 0 0 0 0 0 0
0 0 0 0 0 0 0 0 0 0 0 0 0 0 0 0 0 0 0 0 0 0 0 0 0 0 0 0 0 0 0 0
0 0 0 0 0 0 0 0 0 0 0 0 0 0 0 0 0 0 0 0 0 0 0 0 0 0 0 0 0 0 0 0
0 0 0 0 0 0 0 0 0 0 0 0 0 0 0 0 0 0 0 0 0 0 0 0 0 0 0 0 0 0 0 0
0 0 0 0 0 0 0 0 0 0 0 0 0 0 0 0 0 0 0 0 0 0 0 0 0 0 0 0 0 0 0 0
0 0 0 0 0 0 0 0 0 0 0 0 0 0 0 0 0 0 0 0 0 0 0 0 0 0 0 0 0 0 0 0
0 0 0 0 0 0 0 0 0 0 0 0 0 0 0 0 0 0 0 0 0 0 0 0 0 0 0 0 0 0 0 0
0 0 0 0 0 0 0 0 0 0 0 0 0 0 0 0 0 0 0 0 0 0 0 0 0 0 0 0 0 0 0 0
0 0 0 0 0 0 0 0 0 0 0 0 0 0 0 0 0 0 0 0 0 0 0 0 0 0 0 0 0 0 0 0
0 0 0 0 0 0 0 0 0 0 0 0 0 0 0 0 0 0 0 0 0 0 0 0 0 0 0 		</DataArray>
	</CellData>
  </Piece>
 </UnstructuredGrid>
</VTKFile>
